<svg width="12" height="12" viewBox="0 0 12 12" fill="none" xmlns="http://www.w3.org/2000/svg">
<path d="M7.88779 7.86369L6.62034 10.5269C6.59636 10.5772 6.56049 10.621 6.51582 10.6544C6.47114 10.6878 6.41901 10.7098 6.36393 10.7185C6.30884 10.7273 6.25246 10.7225 6.19965 10.7045C6.14683 10.6866 6.09917 10.6561 6.06079 10.6156L4.03218 8.47422C3.97784 8.41695 3.90544 8.38014 3.82715 8.36998L0.9028 7.9874C0.847489 7.9802 0.794761 7.95964 0.749171 7.92751C0.70358 7.89537 0.666498 7.85262 0.641126 7.80295C0.615753 7.75328 0.602854 7.69817 0.603542 7.6424C0.604229 7.58663 0.618483 7.53186 0.645073 7.48283L2.05513 4.89181C2.09281 4.82258 2.10555 4.74251 2.09121 4.66501L1.55113 1.76528C1.54087 1.7104 1.54414 1.65384 1.56066 1.6005C1.57718 1.54717 1.60645 1.49866 1.64593 1.45918C1.68541 1.4197 1.73392 1.39043 1.78726 1.37391C1.84059 1.35739 1.89715 1.35412 1.95204 1.36438L4.85119 1.90446C4.92887 1.91893 5.00917 1.90619 5.07856 1.86838L7.66901 0.459465C7.71798 0.432767 7.77271 0.418391 7.82848 0.417578C7.88425 0.416765 7.93938 0.42954 7.98911 0.454799C8.03884 0.480058 8.08168 0.517043 8.11391 0.562559C8.14615 0.608075 8.16683 0.660754 8.17415 0.716047L8.55673 3.64097C8.56702 3.71905 8.60382 3.79124 8.66097 3.84543L10.8024 5.87403C10.8429 5.91242 10.8734 5.96008 10.8913 6.01289C10.9092 6.06571 10.914 6.12209 10.9053 6.17718C10.8965 6.23226 10.8745 6.28439 10.8411 6.32906C10.8077 6.37374 10.764 6.40961 10.7136 6.43359L8.05044 7.70104C7.97915 7.73496 7.92171 7.7924 7.88779 7.86369ZM8.34425 8.96734L9.15409 8.1575L11.5842 10.587L10.7738 11.3974L8.34425 8.96734Z" fill="white"/>
</svg>
